<?xml version="1.0" encoding="UTF-8"?>
<svg viewBox="0 0 64 64" xmlns="http://www.w3.org/2000/svg">
 <defs>
  <linearGradient id="b" x1="12.615" x2="48.374" y1="25.91" y2="62.72" gradientTransform="matrix(1.1863 0 0 .78002 .1073 -.083334)" gradientUnits="userSpaceOnUse">
   <stop stop-color="#afd9ed" offset="0"/>
   <stop stop-color="#cfc3db" offset="1"/>
  </linearGradient>
  <linearGradient id="a" x1="12.615" x2="48.374" y1="25.91" y2="62.72" gradientTransform="matrix(1.1863 0 0 .78002 1.9406 -.083334)" gradientUnits="userSpaceOnUse">
   <stop stop-color="#87a8b7" offset="0"/>
   <stop stop-color="#7f718e" offset="1"/>
  </linearGradient>
 </defs>
 <path d="m33.085 14.948c-0.7449-0.46476-14.176 8.8165-14.921 9.2812s-14.892 8.3517-14.892 9.2812 14.148 8.8477 14.892 9.3125 14.176 9.746 14.921 9.2812c0.4499-0.2807 0.34708-5.8765 0.20242-11.094h26.084c0.25632 0 0.46268-0.223 0.46268-0.5v-14c0-0.277-0.20636-0.5-0.46268-0.5h-26.084c0.14466-5.2172 0.24747-10.782-0.20242-11.062z" fill="url(#a)"/>
 <path d="m31.251 14.948c-0.7449-0.46476-14.176 8.8165-14.921 9.2812s-14.892 8.3517-14.892 9.2812 14.148 8.8477 14.892 9.3125 14.176 9.746 14.921 9.2812c0.4499-0.2807 0.34708-5.8765 0.20242-11.094h26.084c0.25632 0 0.46268-0.223 0.46268-0.5v-14c0-0.277-0.20636-0.5-0.46268-0.5h-26.084c0.14466-5.2172 0.24747-10.782-0.20242-11.062z" fill="url(#b)"/>
 <path d="m6.3333 32.667s8.1667-6.6667 9.6667-6.6667 12-9 13-8-10 8-10 8-7.3333 5.8333-12.667 6.6667z" fill="#d0f1fc" fill-rule="evenodd"/>
 <path d="m34.5,27h22a.5,.5 0 0,1 .5.5 .5,.5 0 0,1 -.5.5h-22a.5,.5 0 0,1 -.5-.5 .5,.5 0 0,1 .5-.5" fill="#d0f1fc"/>
</svg>
